<?xml version="1.0" encoding="UTF-8"?>
<svg xmlns="http://www.w3.org/2000/svg" version="1.1" viewBox="0 0 300 113.4">
  <!-- Generator: Adobe Illustrator 28.7.1, SVG Export Plug-In . SVG Version: 1.2.0 Build 142)  -->
  <g>
    <g id="black">
      <path d="M32,53.9c0,2-.4,3.8-1.3,5.5-.8,1.7-2,3.1-3.5,4.3-1.5,1.2-3.3,2.1-5.4,2.8-2.1.7-4.4,1-6.8,1s-5.6-.4-8-1.2c-2.4-.8-4.7-2.1-7.1-4l3.9-6.3c1.9,1.6,3.6,2.7,5.1,3.4,1.5.7,3,1.1,4.6,1.1s3.5-.5,4.7-1.5c1.2-1,1.8-2.3,1.8-4s-.1-1.4-.3-2c-.2-.6-.6-1.3-1.2-1.9-.6-.7-1.4-1.4-2.3-2.2-1-.8-2.3-1.8-3.8-2.9-1.2-.8-2.4-1.7-3.5-2.6-1.1-.9-2.2-1.9-3.1-2.9-.9-1-1.7-2.2-2.3-3.4-.6-1.3-.9-2.7-.9-4.3s.4-3.6,1.2-5.1c.8-1.5,1.8-2.8,3.2-3.9,1.4-1.1,3-1.9,4.9-2.5,1.9-.6,4-.9,6.2-.9s4.6.3,6.8.9c2.2.6,4.2,1.5,6.1,2.7l-3.5,5.7c-2.4-1.7-4.9-2.5-7.6-2.5s-3,.4-4,1.3c-1.1.8-1.6,1.9-1.6,3.2s.5,2.3,1.4,3.3c.9,1,2.5,2.3,4.8,4.1,2.3,1.7,4.2,3.2,5.7,4.4,1.5,1.3,2.7,2.5,3.6,3.6.9,1.1,1.5,2.3,1.8,3.4.3,1.1.5,2.4.5,3.8h0ZM84.6,42.8c0,3.6-.5,6.8-1.6,9.8-1.1,3-2.6,5.6-4.5,7.8-1.9,2.2-4.2,4-6.9,5.2-2.7,1.2-5.5,1.9-8.6,1.9s-2.7-.1-3.9-.4c-1.2-.2-2.4-.7-3.4-1.2-1.1-.6-2.2-1.3-3.2-2.2-1.1-.9-2.2-2-3.3-3.4v28.7h-11.6V21.2h11.6v6.6c2.2-2.7,4.5-4.6,6.9-5.8,2.5-1.2,5.3-1.9,8.6-1.9s5.7.6,8.1,1.7c2.4,1.1,4.6,2.7,6.3,4.7,1.8,2,3.2,4.4,4.1,7.1,1,2.8,1.5,5.8,1.5,9.2h0ZM72,43.2c0-4.9-1-8.9-3-11.7-2-2.9-4.7-4.3-8.2-4.3s-6.5,1.5-8.6,4.6-3.2,7.2-3.2,12.4,1,9.1,3.1,11.9c2.1,2.9,5,4.3,8.6,4.3s4-.6,5.4-1.7c1.4-1.1,2.6-2.5,3.5-4.3.9-1.7,1.5-3.6,1.9-5.6.4-2,.5-3.9.5-5.7ZM89.8,66.4h11.9V0h-11.9v66.4ZM152.7,66.4V21.1h-11.9v24.4c0,2.2,0,3.8-.3,5-.2,1.2-.5,2.3-.9,3.2-1.7,3.7-4.8,5.6-9.3,5.6s-6-1.3-7.4-3.8c-.5-1-.9-2.1-1.1-3.3-.2-1.2-.3-3-.3-5.3v-25.9h-11.9v25.7c0,1.8,0,3.2,0,4.4,0,1.2.1,2.3.2,3.2.1.9.3,1.8.4,2.5.1.7.4,1.4.7,2.1,1.1,2.8,2.9,4.9,5.3,6.3,2.4,1.4,5.5,2.1,9,2.1s6-.6,8.4-1.7c2.4-1.1,4.8-2.9,7.1-5.5v6.1h12ZM204.1,66.4v-25.7c0-1.7,0-3.2,0-4.5,0-1.2-.1-2.3-.2-3.2-.1-.9-.3-1.7-.5-2.4-.2-.7-.4-1.4-.6-2-1.1-2.7-2.9-4.8-5.3-6.3-2.4-1.5-5.5-2.2-9-2.2s-6,.6-8.4,1.7c-2.4,1.1-4.8,2.9-7.1,5.5v-6.1h-12.1v45.2h12v-24.4c0-2.1,0-3.7.2-4.9.2-1.2.4-2.3.9-3.3.8-1.8,2-3.2,3.6-4.1,1.6-.9,3.5-1.4,5.8-1.4,3.5,0,6,1.3,7.4,3.8.5,1,.9,2.1,1.1,3.3.2,1.2.3,3,.3,5.2v25.8s11.9,0,11.9,0ZM253.5,63.4l-18.2-22.6,15.4-16.5-9-3.9-16,18.5h-1.3V0h-12v66.4h12v-24.1l18,25,11.1-3.9h0ZM300,47.2v-7.4l-36.2-18.1v8.1l28,13.6-28,13.8v7.9l36.2-18ZM69.2,98.8h-2.6c.1-1.3.8-2.4,1.9-3.1,1-.7,2.3-1,3.8-1s3.2.5,4.2,1.4c.8.8,1.2,1.9,1.2,3.2v9.1h-2l-.3-1.8c-1,1.5-2.5,2.2-4.5,2.2s-2.7-.4-3.6-1.2c-.7-.7-1.1-1.6-1.1-2.6s.5-2.3,1.4-3.1c.8-.6,2-1.1,3.7-1.4l3.9-.7v-.7c0-.9-.3-1.5-.9-2-.5-.4-1.3-.6-2.2-.6-1.8,0-2.8.7-3,2.2h0s0,0,0,0ZM71.5,106.7c1,0,2-.3,2.7-1,.7-.6,1-1.4,1-2.2v-1.7l-3.3.6c-1.2.2-2,.5-2.5.9-.4.3-.5.8-.5,1.4s.2,1.1.7,1.5c.4.3,1.1.5,1.9.5h0ZM111.2,108.4h4.9v-19.4h-4.9v19.4ZM140.5,98.7c0,6.3,4.8,10.1,10.3,10.1s3.8-.5,4.4-.7v-5.2c-.2.1-1.8,1-4.1,1-3.2,0-5.3-2.3-5.3-5.2s2.2-5.2,5.3-5.2,3.9.9,4.1,1v-5.2c-.5-.1-2.1-.7-4.4-.7-5.9,0-10.3,4.2-10.3,10.1h0ZM89.8,98.7c0,6.3,4.8,10.1,10.2,10.1s3.8-.5,4.4-.7v-5.2c-.2.1-1.8,1-4.1,1-3.2,0-5.3-2.3-5.3-5.2s2.2-5.2,5.3-5.2,3.9.9,4.1,1v-5.2c-.5-.1-2.1-.7-4.4-.7-5.9,0-10.2,4.2-10.2,10.1h0ZM170.5,88.6c-5.9,0-10.2,4.5-10.2,10.1s4.2,10.1,10.2,10.1,10.2-4.5,10.2-10.1-4.3-10.1-10.2-10.1ZM170.5,103.8c-2.9,0-5-2.3-5-5.1s2.1-5.1,5-5.1,5,2.3,5,5.1-2.1,5.1-5,5.1ZM131.2,96.7l-1.3-.4c-.8-.3-2.2-.7-2.2-1.8s1.1-1.6,3-1.6,3.7.6,3.8.6v-4.2c-.1,0-2.4-.6-4.7-.6-4.5,0-7.2,2.4-7.2,6.1s2.3,4.8,5,5.7c.3.1.7.2,1,.3,1.2.4,2.2.9,2.2,1.9s-1.1,1.8-3.5,1.8-4.2-.6-4.6-.7v4.5c.2,0,2.7.5,5.2.5,3.7,0,8-1.6,8-6.5s-1.4-4.5-4.6-5.6h0s0,0,0,0ZM201.8,104.1h2.7c-.2,1.4-.9,2.6-2,3.5-1,.8-2.3,1.2-3.8,1.2s-3.5-.7-4.7-2c-1.1-1.2-1.6-2.9-1.6-4.9s.6-4.2,1.9-5.5,2.6-1.7,4.3-1.7,3,.4,4.1,1.3c.9.8,1.5,1.8,1.7,3h-2.7c-.2-.7-.5-1.3-1-1.7-.5-.4-1.2-.6-2-.6-1.2,0-2.1.5-2.8,1.4-.6.9-.9,2.1-.9,3.7s.4,2.9,1.2,3.8c.7.7,1.5,1,2.5,1s1.6-.3,2.2-.8c.5-.4.8-1.1.9-1.8h0ZM206.4,101.7c0-2.4.7-4.3,2.2-5.5,1.2-1,2.6-1.5,4.4-1.5s3.7.7,4.9,2c1.1,1.2,1.7,2.9,1.7,5.1s-.7,4.3-2.1,5.5c-1.2,1-2.7,1.5-4.5,1.5s-3.7-.7-4.9-2.1c-1.1-1.2-1.7-2.9-1.7-5h0ZM208.9,101.7c0,1.7.4,3,1.3,3.9.7.8,1.6,1.1,2.7,1.1s2.3-.5,3-1.5c.7-.9,1-2.1,1-3.6s-.4-3.1-1.3-4c-.7-.7-1.6-1.1-2.7-1.1s-2.3.5-3,1.5c-.7.9-1,2.1-1,3.6h0s0,0,0,0ZM224.8,108.4h-2.5v-13.3h2l.3,1.6c.9-1.3,2.2-2,3.9-2s3.2.7,3.9,2.1c.9-1.4,2.3-2.1,4.3-2.1s2.6.5,3.4,1.4c.7.8,1.1,2,1.1,3.4v8.9h-2.5v-8.8c0-1.9-.9-2.9-2.6-2.9s-1.8.4-2.5,1.2c-.5.7-.7,1.4-.7,2.3v8.1h-2.5v-8.8c0-1.9-.9-2.9-2.6-2.9s-1.8.4-2.4,1.1c-.5.6-.8,1.4-.8,2.3v8.2ZM245.1,95h2l.4,1.7c1.1-1.4,2.6-2.1,4.5-2.1s3.4.7,4.5,2.1c.9,1.2,1.4,2.9,1.4,4.9s-.6,4.3-1.9,5.5c-1.1,1.1-2.5,1.6-4.1,1.6s-3.3-.7-4.3-2.1v6.3h-2.5v-18h0s0,0,0,0ZM255.3,101.6c0-1.7-.4-2.9-1.3-3.8-.7-.7-1.5-1-2.6-1s-2.2.5-3,1.4c-.7.9-1.1,2-1.1,3.4s.4,3,1.3,3.9c.7.8,1.6,1.2,2.8,1.2s2.3-.5,2.9-1.4c.6-.9.9-2.1.9-3.7h0s0,0,0,0ZM262.7,98.8h-2.6c.1-1.3.8-2.4,1.9-3.1,1-.7,2.3-1,3.8-1s3.2.5,4.2,1.4c.8.8,1.2,1.9,1.2,3.2v9.1h-2l-.3-1.8c-1,1.5-2.5,2.2-4.5,2.2s-2.7-.4-3.6-1.2c-.7-.7-1.1-1.6-1.1-2.6s.5-2.3,1.4-3.1c.8-.6,2-1.1,3.7-1.4l3.9-.7v-.7c0-.9-.3-1.5-.9-2-.5-.4-1.3-.6-2.2-.6-1.8,0-2.8.7-3,2.2h0s0,0,0,0ZM265,106.7c1,0,2-.3,2.7-1,.7-.6,1-1.4,1-2.2v-1.7l-3.3.6c-1.2.2-2,.5-2.5.9-.4.3-.5.8-.5,1.4s.2,1.1.7,1.5c.4.3,1.1.5,1.9.5h0ZM277.3,108.4h-2.5v-13.3h2l.3,1.7c1-1.4,2.3-2.1,4.1-2.1s2.8.5,3.6,1.5c.7.9,1.1,2.1,1.1,3.6v8.7h-2.5v-8.7c0-2-.9-2.9-2.8-2.9s-1.8.3-2.4,1c-.6.6-.9,1.4-.9,2.4v8.2h0ZM300,95l-4.6,13.5c-.6,1.8-1.2,3-1.8,3.7-.7.8-1.5,1.2-2.6,1.2s-1,0-1.6-.2v-2c.5.1.9.2,1.3.2s.9-.2,1.2-.6c.3-.4.7-1.2,1.1-2.4h-.8l-4.9-13.3h2.7l3.8,11.3,3.8-11.3h2.5s0,0,0,0Z"/>
    </g>
  </g>
</svg>