<?xml version="1.0" encoding="UTF-8"?>
<svg xmlns="http://www.w3.org/2000/svg" version="1.1" viewBox="0 0 719.27 215.44">
  <defs>
    <style>
      .cls-1 {
        fill: none;
      }

      .cls-2 {
        fill: #fff;
      }
    </style>
  </defs>
  <!-- Generator: Adobe Illustrator 28.7.1, SVG Export Plug-In . SVG Version: 1.2.0 Build 142)  -->
  <g>
    <g id="Logo">
      <g>
        <rect id="clearspace" class="cls-1" width="719.27" height="215.44"/>
        <path class="cls-2" d="M76.29,109.43c0,1.99-.42,3.83-1.27,5.53-.84,1.69-2.02,3.12-3.53,4.3-1.51,1.18-3.3,2.1-5.38,2.76-2.08.66-4.36.99-6.83.99-2.96,0-5.61-.4-7.96-1.21-2.35-.81-4.7-2.15-7.05-4.01l3.89-6.32c1.87,1.56,3.55,2.71,5.06,3.43,1.5.72,3.04,1.08,4.61,1.08,1.93,0,3.48-.49,4.66-1.49,1.18-1,1.76-2.34,1.76-4.03,0-.72-.11-1.41-.32-2.04-.21-.63-.6-1.28-1.17-1.95-.57-.66-1.35-1.39-2.35-2.17-.99-.78-2.27-1.75-3.84-2.9-1.2-.85-2.38-1.72-3.52-2.62-1.15-.91-2.18-1.87-3.12-2.9-.93-1.03-1.69-2.17-2.26-3.44-.57-1.27-.86-2.72-.86-4.34,0-1.87.39-3.58,1.17-5.11.78-1.54,1.85-2.85,3.2-3.93,1.35-1.09,2.97-1.93,4.87-2.53,1.89-.6,3.95-.91,6.18-.91,2.35,0,4.62.32,6.82.94,2.2.63,4.23,1.54,6.1,2.74l-3.53,5.68c-2.41-1.69-4.94-2.53-7.6-2.53-1.63,0-2.97.42-4.02,1.27-1.06.85-1.58,1.9-1.58,3.17s.46,2.3,1.4,3.26c.93.97,2.53,2.32,4.82,4.07,2.3,1.69,4.21,3.17,5.72,4.44,1.51,1.27,2.71,2.46,3.59,3.58.88,1.12,1.48,2.25,1.82,3.4.33,1.15.5,2.41.5,3.8M116.28,98.78c0,1.75-.18,3.64-.55,5.66-.37,2.02-.99,3.89-1.87,5.61-.88,1.72-2.03,3.14-3.46,4.25-1.43,1.12-3.23,1.67-5.42,1.67-3.64,0-6.51-1.45-8.61-4.35-2.09-2.9-3.14-6.88-3.14-11.95s1.06-9.31,3.19-12.36c2.12-3.05,5.01-4.57,8.65-4.57s6.19,1.44,8.19,4.3c2.01,2.87,3.01,6.78,3.01,11.72M128.92,98.32c0-3.38-.48-6.45-1.45-9.22-.97-2.78-2.34-5.16-4.12-7.15-1.78-1.99-3.9-3.54-6.34-4.66-2.45-1.11-5.15-1.67-8.11-1.67-3.26,0-6.13.62-8.61,1.85-2.48,1.24-4.77,3.18-6.88,5.83l-.06-6.6h-11.62v67.82h11.62v-28.66c1.15,1.33,2.25,2.45,3.31,3.35,1.06.91,2.13,1.65,3.22,2.22,1.09.57,2.24.98,3.45,1.22,1.21.24,2.51.36,3.9.36,3.09,0,5.96-.62,8.62-1.85,2.66-1.24,4.96-2.97,6.9-5.2,1.94-2.23,3.45-4.84,4.54-7.82,1.09-2.98,1.64-6.26,1.64-9.82M134.09,121.9h11.93V55.53h-11.93v66.37ZM196.96,121.92v-45.28h-11.93v24.37c0,2.17-.09,3.85-.27,5.03-.18,1.18-.49,2.25-.91,3.22-1.69,3.74-4.78,5.62-9.27,5.62-3.51,0-5.97-1.27-7.36-3.81-.55-.96-.92-2.05-1.14-3.26-.21-1.21-.32-2.96-.32-5.26v-25.9h-11.93v25.73c0,1.75.01,3.23.05,4.44.03,1.21.11,2.28.23,3.22.12.94.26,1.77.41,2.49.15.72.38,1.42.68,2.08,1.09,2.78,2.85,4.88,5.3,6.3,2.45,1.42,5.45,2.12,9.01,2.12,3.2,0,6.01-.56,8.43-1.67,2.42-1.12,4.77-2.94,7.07-5.48l.03,6.06h11.93ZM248.4,121.9v-25.67c0-1.75-.02-3.24-.05-4.47-.03-1.24-.1-2.31-.23-3.21-.12-.9-.27-1.7-.45-2.39-.18-.69-.39-1.37-.63-2.04-1.09-2.71-2.85-4.8-5.3-6.28-2.45-1.48-5.45-2.22-9.02-2.22-3.2,0-6.01.56-8.43,1.68-2.42,1.12-4.77,2.95-7.07,5.48l-.02-6.06h-12.03v45.18h12.03v-24.39c0-2.11.07-3.75.23-4.92.15-1.17.44-2.27.87-3.3.78-1.81,1.98-3.18,3.59-4.11,1.61-.93,3.53-1.4,5.77-1.4,3.52,0,5.97,1.27,7.36,3.79.54.96.92,2.05,1.13,3.25.21,1.2.32,2.95.32,5.24v25.84h11.93ZM297.78,118.93l-18.18-22.6,15.37-16.46-9.04-3.89-16,18.53h-1.27v-38.97h-12.03v66.37h12.03v-24.05l17.99,24.95,11.12-3.89ZM344.28,102.7v-7.4l-36.17-18.15v8.13l28.03,13.64-28.03,13.82v7.95l36.17-17.97ZM653.88,46.99l-237,.14c-7.54,0-14.16,3.96-17.89,9.91-2.04,3.25-3.22,7.09-3.22,11.2v54c0,11.56,9.37,20.94,20.94,20.94h12.18l13.86,27.83h8.71l14.24-27.83,188.18-.14c11.66,0,21.11-9.45,21.11-21.11v-53.83c0-11.66-9.45-21.11-21.11-21.11Z"/>
        <path d="M490.96,75.77c12.76,0,21.68,9.47,21.68,23.02,0,16.43-11.56,23.92-22.3,23.92h-.09c-12.71,0-21.58-9.5-21.58-23.11s9.17-23.83,22.3-23.83M490.42,115.25c7.25,0,12.52-6.81,12.52-16.2,0-7.63-3.83-15.84-12.25-15.84s-12.51,8.09-12.51,16.1c0,9.23,5.15,15.93,12.24,15.93M456.9,114.8c-8.56,0-14.31-6.22-14.31-15.48s5.72-15.74,14.58-15.74c2.63,0,5.08.44,7.28,1.32,1.18-2.39,2.67-4.58,4.41-6.5l-.37-.2c-2.07-1.12-6.27-2.43-11.31-2.43-14.19,0-24.1,9.84-24.1,23.92s9,23.02,22.39,23.02c5.45,0,10.19-1.34,12.8-2.59l.17-.08c-1.68-1.9-3.1-4.05-4.23-6.41-2.33.8-4.66,1.18-7.31,1.18M541.62,75.77c-7.53,0-11.9,4.28-13.43,6.12l-.47.57-.05-.74-.31-4.96h-8.54l.06.82c.25,3.32.36,6.82.36,11.7v32.44h9.43v-26.97c0-1.29.19-2.58.5-3.45,1.22-3.75,4.75-7.54,9.86-7.54,7.67,0,9.28,6.61,9.28,12.16v25.8h9.43v-26.7c0-18.32-13.42-19.25-16.11-19.25M579.52,76.75v-.3c.05-5.08,4.26-9.22,9.37-9.22h.38v-9.09h-.78c-10.1,0-18.36,8.22-18.4,18.32v.29h-7.53v7.55h7.53v37.42h9.43v-37.42h9.75v-7.54h-9.46s-.3,0-.3,0ZM594.98,58.14c-1.3,0-2.35,1.06-2.35,2.37s1.05,2.38,2.35,2.38,2.34-1.04,2.34-2.38-1.03-2.37-2.33-2.37h-.01ZM594.99,58.51c1.05,0,1.9.9,1.9,2.02s-.84,2.02-1.9,2c-1.06,0-1.91-.89-1.91-2.01s.85-2.01,1.9-2.01h.01ZM594.53,60.76h.3c.34,0,.51.13.57.46.05.35.12.59.18.68h.44c-.04-.08-.1-.24-.17-.65-.05-.39-.21-.6-.44-.64v-.02c.29-.08.52-.3.52-.64,0-.25-.09-.43-.24-.55-.16-.12-.42-.2-.82-.2-.32,0-.53.03-.75.06v2.65h.42v-1.14ZM594.53,59.54c.07-.01.17-.02.31-.02.47,0,.64.23.64.46,0,.33-.3.45-.64.45h-.31v-.9ZM594.11,121.72v-7.49l17.02-19.77c1.66-1.98,2.37-3.39,2.37-5.5,0-3.39-1.98-5.7-5.5-5.7-2.75,0-5.57,1.41-5.57,5.82h-8.32c0-8.32,6.08-13.31,13.89-13.31s13.82,5.06,13.82,13.25c0,4.42-1.73,6.78-4.86,10.43l-12.74,14.78h17.6v7.49h-27.71ZM650.59,118.98c-2.05,2.05-5.31,3.71-10.05,3.71s-8.19-1.66-10.18-3.65c-2.82-2.82-3.46-6.14-3.71-9.47h8.32c.45,3.58,2.11,5.63,5.57,5.63,1.6,0,2.94-.45,3.97-1.47,1.47-1.47,1.79-3.9,1.79-6.78,0-5.25-1.54-8.19-5.57-8.19-3.39,0-4.93,1.92-5.5,3.71h-7.62v-25.73h25.98v7.6h-18.43v9.68c1.22-1.15,3.78-2.3,6.85-2.3,3.78,0,6.66,1.22,8.51,3.07,3.58,3.58,4.1,7.87,4.1,12.16,0,5.12-.7,8.7-4.03,12.03ZM430.6,115.99c0-3.71-3.01-6.71-6.71-6.71s-6.71,3.01-6.71,6.71,3.01,6.71,6.71,6.71,6.71-3.01,6.71-6.71Z"/>
      </g>
    </g>
  </g>
</svg>